<svg width="19" height="12" viewBox="0 0 19 12" fill="none" xmlns="http://www.w3.org/2000/svg">
<path d="M9.14874 0.862703C8.97602 0.86247 8.80505 0.897163 8.64608 0.964701C8.48712 1.03224 8.34346 1.13122 8.22374 1.2557L0.509735 8.9697C0.387638 9.09287 0.291737 9.23948 0.22781 9.4007C0.163883 9.56192 0.133253 9.73441 0.137764 9.90778C0.142275 10.0812 0.181835 10.2518 0.254061 10.4095C0.326286 10.5672 0.429682 10.7086 0.55802 10.8252C0.686357 10.9419 0.83698 11.0314 1.00081 11.0883C1.16465 11.1451 1.3383 11.1683 1.51132 11.1563C1.68433 11.1443 1.85312 11.0974 2.00753 11.0184C2.16193 10.9394 2.29875 10.83 2.40973 10.6967L9.14874 3.9637L15.9707 10.7887C16.0901 10.9081 16.2318 11.0028 16.3878 11.0674C16.5438 11.132 16.7109 11.1652 16.8797 11.1652C17.0486 11.1652 17.2157 11.132 17.3717 11.0674C17.5276 11.0028 17.6694 10.9081 17.7887 10.7887C17.9081 10.6693 18.0028 10.5276 18.0674 10.3717C18.132 10.2157 18.1653 10.0485 18.1653 9.8797C18.1653 9.71089 18.132 9.54372 18.0674 9.38775C18.0028 9.23179 17.9081 9.09007 17.7887 8.9707L10.0747 1.2567C9.95498 1.13192 9.81119 1.03268 9.65204 0.964964C9.4929 0.897249 9.32169 0.862464 9.14874 0.862703Z" fill="#2E3746"/>
</svg>
